<?xml version="1.0" encoding="UTF-8"?>
<svg xmlns="http://www.w3.org/2000/svg" id="Outline" viewBox="0 0 512 512" width="512" height="512"><path d="M496,264a104.187,104.187,0,0,0-64-96.008A24.027,24.027,0,0,0,408,144H373.459a31.732,31.732,0,0,0,0-16H376a8,8,0,0,0,0-16H363.314l10.343-10.343a8,8,0,0,0-11.314-11.314L352,100.686V88a8,8,0,0,0-16,0v2.573a30.975,30.975,0,0,0-29.657,7.77c-.267.267-25.061,33.3-25.2,33.541A54.973,54.973,0,0,0,275.6,144H253.459a31.732,31.732,0,0,0,0-16H256a8,8,0,0,0,0-16H243.314l10.343-10.343a8,8,0,0,0-11.314-11.314L232,100.686V88a8,8,0,0,0-16,0v2.573a30.975,30.975,0,0,0-29.657,7.77c-.267.267-25.061,33.3-25.2,33.541A54.973,54.973,0,0,0,155.6,144H152a23.979,23.979,0,0,0-22.776,16.414c-3.04-.269-6.115-.414-9.224-.414A103.975,103.975,0,0,0,64.637,352H24a8,8,0,0,0-8,8A40.067,40.067,0,0,0,48,399.2V424a8,8,0,0,0,8,8H456a8,8,0,0,0,8-8V399.2A40.067,40.067,0,0,0,496,360a8,8,0,0,0-8-8H447.363A104.016,104.016,0,0,0,496,264ZM294.655,140.459l23.364-31.15a15.029,15.029,0,0,1,20.324.348l16,16A14.471,14.471,0,0,1,358.484,136a14.822,14.822,0,0,1-2.272,8h-63.46Q293.582,142.282,294.655,140.459Zm-120,0,23.364-31.15a15.029,15.029,0,0,1,20.324.348l16,16A14.471,14.471,0,0,1,238.484,136a14.822,14.822,0,0,1-2.272,8h-63.46Q173.582,142.282,174.655,140.459Zm-28.328,21.888A7.985,7.985,0,0,1,152,160H408a8,8,0,1,1,0,16,8,8,0,0,0-8,8,16,16,0,0,1-32,0,8,8,0,0,0-16,0,16,16,0,0,1-32,0,8,8,0,0,0-16,0,16,16,0,0,1-32,0,8,8,0,0,0-16,0,16,16,0,0,1-32,0,8,8,0,0,0-16,0,16.03,16.03,0,0,1-7.873,13.772,104.2,104.2,0,0,0-54.521-34.579A8.018,8.018,0,0,1,146.327,162.347ZM56,288a64.072,64.072,0,0,1,64-64,40,40,0,0,1,0,80,24,24,0,0,1,0-48,8,8,0,0,0,0-16,40,40,0,0,0,0,80,56,56,0,0,0,0-112,80.022,80.022,0,0,0-78.4,95.944A87.992,87.992,0,1,1,120,352,64.072,64.072,0,0,1,56,288ZM448,416H64V400H448Zm30.629-48A24.042,24.042,0,0,1,456,384H56a24.042,24.042,0,0,1-22.629-16ZM392,352H175.363a103.883,103.883,0,0,0,34-141.138A32.013,32.013,0,0,0,216,205.149a31.942,31.942,0,0,0,39.125,7.037A87.9,87.9,0,0,1,272,264a8,8,0,0,0,16,0,103.913,103.913,0,0,0-13.332-50.913A31.961,31.961,0,0,0,312,205.145a32.02,32.02,0,0,0,17.305,10.144c.012.019.022.038.034.057A87.589,87.589,0,0,1,344,264a8,8,0,0,0,16,0,103.562,103.562,0,0,0-12.818-50.027A32.132,32.132,0,0,0,360,205.145a31.943,31.943,0,0,0,32.91,9.585A87.342,87.342,0,0,1,408,264a8,8,0,0,0,16,0,103.237,103.237,0,0,0-17.31-57.467,31.969,31.969,0,0,0,8.563-15.643,24.008,24.008,0,0,0,9.734-5.923,24.468,24.468,0,0,0,1.674-1.864A88.006,88.006,0,0,1,392,352Z"/></svg>
